<svg xmlns="http://www.w3.org/2000/svg" xmlns:xlink="http://www.w3.org/1999/xlink" viewBox="0,0,256,256" width="96px" height="96px"><g transform="translate(-33.28,-33.28) scale(1.26,1.26)"><g fill="none" fill-rule="nonzero" stroke="none" stroke-width="1" stroke-linecap="butt" stroke-linejoin="miter" stroke-miterlimit="10" stroke-dasharray="" stroke-dashoffset="0" font-family="none" font-weight="none" font-size="none" text-anchor="none" style="mix-blend-mode: normal"><g transform="scale(5.33333,5.33333)"><path d="M14.1,42h19.8c4.474,0 8.1,-3.627 8.1,-8.1v-6.9h-36v6.9c0,4.473 3.626,8.1 8.1,8.1z" fill="#0091ea"></path><rect x="6" y="16" width="36" height="11" fill="#00b0ff"></rect><path d="M33.9,6h-19.8c-4.474,0 -8.1,3.626 -8.1,8.1v1.9h36v-1.9c0,-4.474 -3.626,-8.1 -8.1,-8.1z" fill="#40c4ff"></path><path d="M22.854,18.943l1.738,-2.967l-1.598,-2.727c-0.418,-0.715 -1.337,-0.954 -2.052,-0.536c-0.715,0.418 -0.955,1.337 -0.536,2.052z" fill="#ffffff"></path><path d="M26.786,12.714c-0.716,-0.419 -1.635,-0.179 -2.052,0.536l-8.644,14.75h3.477l7.754,-13.233c0.419,-0.715 0.179,-1.634 -0.535,-2.053z" fill="#ffffff"></path><path d="M34.521,32.92l-7.611,-12.987l-0.763,1.303c-0.444,0.95 -0.504,2.024 -0.185,3.011l5.972,10.191c0.279,0.476 0.78,0.741 1.295,0.741c0.257,0 0.519,-0.066 0.757,-0.206c0.715,-0.419 0.954,-1.338 0.535,-2.053z" fill="#ffffff"></path><path d="M25.473,27.919l-0.171,-0.289c-0.148,-0.224 -0.312,-0.434 -0.498,-0.621h-12.504c-0.829,0 -1.5,0.665 -1.5,1.484c0,0.819 0.671,1.484 1.5,1.484h13.394c0.194,-0.653 0.141,-1.382 -0.221,-2.058z" fill="#ffffff"></path><path d="M16.66,32.961c-0.487,-0.556 -1.19,-0.934 -2.03,-0.959h-0.004c-0.317,-0.009 -0.628,0.026 -0.932,0.087l-0.487,0.831c-0.419,0.715 -0.179,1.634 0.536,2.053c0.238,0.14 0.5,0.206 0.757,0.206c0.515,0 1.017,-0.266 1.295,-0.741z" fill="#ffffff"></path><path d="M30.196,27.009h5.504c0.829,0 1.5,0.665 1.5,1.484c0,0.819 -0.671,1.484 -1.5,1.484h-5.394c-0.194,-0.653 -0.296,-2.781 -0.11,-2.968z" fill="#ffffff"></path></g></g></g></svg>